<svg width="45" height="51" viewBox="0 0 45 51" fill="none" xmlns="http://www.w3.org/2000/svg">
<path d="M33.792 10.496C33.792 3.90401 29.632 7.81123e-06 22.144 8.13854e-06L-9.85063e-06 9.10649e-06L-9.39743e-06 10.368L18.88 10.368C23.808 10.368 25.472 11.392 25.472 15.04C25.472 18.304 23.488 20.352 18.944 20.352L-8.96102e-06 20.352L-8.51341e-06 30.592L18.88 30.592C23.808 30.592 25.472 31.616 25.472 35.264C25.472 38.464 23.488 40.576 18.944 40.576L-8.077e-06 40.576L-7.62939e-06 50.816L32.768 50.816L32.768 40.576L28.032 40.576L28.032 40.448C31.04 38.72 33.792 35.136 33.792 30.208C33.792 25.92 31.424 22.912 28.032 21.632L28.032 21.504C31.296 18.688 33.792 15.808 33.792 10.496Z" fill="#0D0D0D"/>
<path d="M35.4882 39.304L35.4882 49.544L44.5762 49.544L44.5762 39.304L35.4882 39.304Z" fill="#0D0D0D"/>
</svg>
