<svg width="227" height="48" viewBox="0 0 227 48" fill="none" xmlns="http://www.w3.org/2000/svg">
<path d="M12.36 46H0.84V0.239998H23.048C32.584 0.239998 38.536 5.232 38.536 14.832C38.536 24.432 32.584 29.424 23.048 29.424H12.36V46ZM12.36 20.016H20.36C24.328 20.016 26.76 18.672 26.76 14.832C26.76 10.992 24.328 9.648 20.36 9.648H12.36V20.016ZM52.306 46H42.066V0.239998H52.306V46ZM67.029 47.024C60.629 47.024 56.597 43.248 56.597 37.424C56.597 30.64 62.165 28.016 69.141 26.544C72.725 25.776 77.781 25.264 77.781 22C77.781 20.208 76.373 19.056 73.429 19.056C69.653 19.056 67.925 20.592 67.605 23.792H57.877C58.197 17.52 62.805 12.144 73.877 12.144C82.773 12.144 87.701 15.728 87.701 25.776V38.448C87.701 40.176 87.893 40.944 88.917 40.944C89.173 40.944 89.365 40.944 89.749 40.88V45.744C87.701 46.128 85.589 46.32 84.117 46.32C80.021 46.32 78.485 44.784 77.973 42.032H77.845C75.541 44.912 71.765 47.024 67.029 47.024ZM71.317 39.984C75.413 39.984 77.781 36.528 77.781 32.752V30C76.437 30.512 74.901 30.896 72.213 31.536C68.437 32.432 67.093 34.032 67.093 36.336C67.093 38.832 68.693 39.984 71.317 39.984ZM115.186 12.208C121.522 12.208 125.81 16.368 125.81 23.856V46H115.57V27.12C115.57 22.192 113.842 20.528 110.45 20.528C106.546 20.528 104.306 22.512 104.306 27.056V46H94.066V13.232H104.306V17.968H104.434C106.162 14.96 109.362 12.208 115.186 12.208ZM152.374 12.208C158.71 12.208 162.998 16.368 162.998 23.856V46H152.758V27.12C152.758 22.192 151.03 20.528 147.638 20.528C143.734 20.528 141.494 22.512 141.494 27.056V46H131.254V13.232H141.494V17.968H141.622C143.35 14.96 146.55 12.208 152.374 12.208ZM200.825 30.832V32.368H177.273C177.273 36.912 180.473 39.408 184.313 39.408C187.961 39.408 189.497 37.744 190.137 36.08H200.569C198.713 42.736 193.273 47.088 184.057 47.088C173.433 47.088 167.033 39.856 167.033 29.616C167.033 20.016 173.049 12.144 184.057 12.144C195.193 12.144 200.825 18.736 200.825 30.832ZM177.337 26.032H190.521C190.521 21.808 188.025 19.568 184.057 19.568C180.153 19.568 177.593 21.808 177.337 26.032ZM223.497 12.976C224.393 12.976 225.161 12.976 226.313 13.232V22.192C225.481 22.064 224.905 22 224.201 22C219.593 22 215.369 24.88 215.369 30.768V46H205.129V13.232H215.369V18.608H215.497C217.097 15.152 219.913 12.976 223.497 12.976Z" fill="#0D0D0D"/>
</svg>
